<svg width="32" height="32" viewBox="0 0 32 32" fill="none" xmlns="http://www.w3.org/2000/svg">
<path d="M24 22C25.5897 21.9947 27.1127 21.3609 28.2368 20.2368C29.3609 19.1127 29.9947 17.5897 30 16C30 14.55 29.694 13.2 28.92 12.088C28.372 11.294 27.428 10.828 26.528 10.328C26.518 8.748 26.538 8.36 27.786 6.282C28.6 4.926 27.032 3.396 25.696 4.242C22.86 6.046 20.928 7.66 19.684 9.562C18.44 11.46 18 13.584 18 16C18.0026 17.5905 18.6356 19.1151 19.7603 20.2397C20.8849 21.3644 22.4095 21.9974 24 22ZM8 22C9.58968 21.9947 11.1127 21.3609 12.2368 20.2368C13.3609 19.1127 13.9947 17.5897 14 16C14 14.55 13.694 13.2 12.92 12.088C12.372 11.294 11.428 10.828 10.528 10.328C10.518 8.748 10.536 8.36 11.786 6.282C12.6 4.926 11.032 3.396 9.696 4.242C6.86 6.046 4.928 7.66 3.684 9.562C2.44 11.46 2 13.584 2 16C2.00264 17.5905 2.63564 19.1151 3.76028 20.2397C4.88493 21.3644 6.40951 21.9974 8 22Z" fill="#CE1320"/>
</svg>
